// this file was generated from BLUTHNER.exs using vonred's 1.exs2sfz.py. Trickster goddess incoming.

<group>lokey=0 hikey=24 pitch_keycenter=24 seq_length=3 seq_position=1 pitch_keytrack=1
	<region> lovel=000 hivel=127 amp_velcurve_127=1 offset=35845 loop_mode=loop_sustain loop_start=702402 loop_end=882764 sample=BLUTHNER\BLUTHNER SAMPLES\RAW\Bluthner f C0.6.wav
	<region> lovel=000 hivel=127 amp_velcurve_127=1 offset=38228 loop_mode=loop_sustain loop_start=702402 loop_end=882764 sample=BLUTHNER\BLUTHNER SAMPLES\RAW\Bluthner p C0.3.wav
	<region> lovel=000 hivel=127 amp_velcurve_127=1 volume=-96 offset=35968 end=279746 trigger=release sample=BLUTHNER\BLUTHNER SAMPLES\RAW\Bluthner RT C0.3.wav
<group>lokey=0 hikey=24 pitch_keycenter=24 seq_length=3 seq_position=2 pitch_keytrack=1
	<region> lovel=000 hivel=127 amp_velcurve_127=1 offset=35826 loop_mode=loop_sustain loop_start=702402 loop_end=882764 sample=BLUTHNER\BLUTHNER SAMPLES\RAW\Bluthner f C0.4.wav
	<region> lovel=000 hivel=127 amp_velcurve_127=1 offset=39993 loop_mode=loop_sustain loop_start=702402 loop_end=882764 sample=BLUTHNER\BLUTHNER SAMPLES\RAW\Bluthner p C0.2.wav
	<region> lovel=000 hivel=127 amp_velcurve_127=1 volume=-96 offset=35968 end=279746 trigger=release sample=BLUTHNER\BLUTHNER SAMPLES\RAW\Bluthner RT C0.2.wav
<group>lokey=0 hikey=24 pitch_keycenter=24 seq_length=3 seq_position=3 pitch_keytrack=1
	<region> lovel=000 hivel=127 amp_velcurve_127=1 offset=38556 loop_mode=loop_sustain loop_start=702402 loop_end=882764 sample=BLUTHNER\BLUTHNER SAMPLES\RAW\Bluthner f C0.5.wav
	<region> lovel=000 hivel=127 amp_velcurve_127=1 offset=37134 loop_mode=loop_sustain loop_start=702402 loop_end=882764 sample=BLUTHNER\BLUTHNER SAMPLES\RAW\Bluthner p C0.1.wav
	<region> lovel=000 hivel=127 amp_velcurve_127=1 volume=-96 offset=35968 end=279746 trigger=release sample=BLUTHNER\BLUTHNER SAMPLES\RAW\Bluthner RT C0.1.wav
<group>lokey=0 hikey=127 pitch_keycenter=60 seq_length=3 seq_position=1 pitch_keytrack=1
	<region> lovel=000 hivel=127 amp_velcurve_127=1 volume=-96 trigger=release sample=BLUTHNER\BLUTHNER SAMPLES\RAW\Bluthner PEDAL OFF.3.wav
	<region> lovel=000 hivel=127 amp_velcurve_127=1 volume=-96 trigger=release sample=BLUTHNER\BLUTHNER SAMPLES\RAW\Bluthner PEDAL OFF.4.wav
	<region> lovel=000 hivel=127 amp_velcurve_127=1 volume=-96 trigger=release sample=BLUTHNER\BLUTHNER SAMPLES\RAW\Bluthner PEDAL OFF.5.wav
	<region> lovel=000 hivel=127 amp_velcurve_127=1 volume=-96 trigger=release sample=BLUTHNER\BLUTHNER SAMPLES\RAW\Bluthner PEDAL OFF.6.wav
	<region> lovel=000 hivel=127 amp_velcurve_127=1 volume=-96 trigger=release sample=BLUTHNER\BLUTHNER SAMPLES\RAW\Bluthner PEDAL OFF.7.wav
	<region> lovel=000 hivel=127 amp_velcurve_127=1 volume=-96 trigger=release sample=BLUTHNER\BLUTHNER SAMPLES\RAW\Bluthner PEDAL OFF.8.wav
	<region> lovel=000 hivel=127 amp_velcurve_127=1 volume=-96 sample=BLUTHNER\BLUTHNER SAMPLES\RAW\Bluthner PEDAL ON.8.wav
<group>lokey=0 hikey=127 pitch_keycenter=60 seq_length=3 seq_position=2 pitch_keytrack=1
	<region> lovel=000 hivel=127 amp_velcurve_127=1 volume=-96 trigger=release sample=BLUTHNER\BLUTHNER SAMPLES\RAW\Bluthner PEDAL OFF.2.wav
	<region> lovel=000 hivel=127 amp_velcurve_127=1 volume=-96 sample=BLUTHNER\BLUTHNER SAMPLES\RAW\Bluthner PEDAL ON.7.wav
<group>lokey=0 hikey=127 pitch_keycenter=60 seq_length=3 seq_position=3 pitch_keytrack=1
	<region> lovel=000 hivel=127 amp_velcurve_127=1 volume=-96 trigger=release sample=BLUTHNER\BLUTHNER SAMPLES\RAW\Bluthner PEDAL OFF.1.wav
	<region> lovel=000 hivel=127 amp_velcurve_127=1 volume=-96 sample=BLUTHNER\BLUTHNER SAMPLES\RAW\Bluthner PEDAL ON.6.wav
<group>lokey=0 hikey=127 pitch_keycenter=60 seq_length=8 seq_position=4 pitch_keytrack=1
	<region> lovel=000 hivel=127 amp_velcurve_127=1 volume=-96 sample=BLUTHNER\BLUTHNER SAMPLES\RAW\Bluthner PEDAL ON.5.wav
<group>lokey=0 hikey=127 pitch_keycenter=60 seq_length=8 seq_position=5 pitch_keytrack=1
	<region> lovel=000 hivel=127 amp_velcurve_127=1 volume=-96 sample=BLUTHNER\BLUTHNER SAMPLES\RAW\Bluthner PEDAL ON.4.wav
<group>lokey=0 hikey=127 pitch_keycenter=60 seq_length=8 seq_position=6 pitch_keytrack=1
	<region> lovel=000 hivel=127 amp_velcurve_127=1 volume=-96 sample=BLUTHNER\BLUTHNER SAMPLES\RAW\Bluthner PEDAL ON.3.wav
<group>lokey=0 hikey=127 pitch_keycenter=60 seq_length=8 seq_position=7 pitch_keytrack=1
	<region> lovel=000 hivel=127 amp_velcurve_127=1 volume=-96 sample=BLUTHNER\BLUTHNER SAMPLES\RAW\Bluthner PEDAL ON.2.wav
<group>lokey=0 hikey=127 pitch_keycenter=60 seq_length=8 seq_position=8 pitch_keytrack=1
	<region> lovel=000 hivel=127 amp_velcurve_127=1 volume=-96 sample=BLUTHNER\BLUTHNER SAMPLES\RAW\Bluthner PEDAL ON.1.wav
<group>lokey=25 hikey=28 pitch_keycenter=28 seq_length=3 seq_position=1 pitch_keytrack=1
	<region> lovel=000 hivel=127 amp_velcurve_127=1 offset=35008 loop_mode=loop_sustain loop_start=613339 loop_end=790430 sample=BLUTHNER\BLUTHNER SAMPLES\RAW\Bluthner f E0.12.wav
	<region> lovel=000 hivel=127 amp_velcurve_127=1 offset=37357 loop_mode=loop_sustain loop_start=613339 loop_end=790430 sample=BLUTHNER\BLUTHNER SAMPLES\RAW\Bluthner p E0.3.wav
	<region> lovel=000 hivel=127 amp_velcurve_127=1 volume=-96 offset=35968 end=279746 trigger=release sample=BLUTHNER\BLUTHNER SAMPLES\RAW\Bluthner RT E0.3.wav
<group>lokey=25 hikey=28 pitch_keycenter=28 seq_length=3 seq_position=2 pitch_keytrack=1
	<region> lovel=000 hivel=127 amp_velcurve_127=1 offset=35051 loop_mode=loop_sustain loop_start=613339 loop_end=790430 sample=BLUTHNER\BLUTHNER SAMPLES\RAW\Bluthner f E0.10.wav
	<region> lovel=000 hivel=127 amp_velcurve_127=1 offset=34561 loop_mode=loop_sustain loop_start=613339 loop_end=790430 sample=BLUTHNER\BLUTHNER SAMPLES\RAW\Bluthner p E0.2.wav
	<region> lovel=000 hivel=127 amp_velcurve_127=1 volume=-96 offset=35968 end=279746 trigger=release sample=BLUTHNER\BLUTHNER SAMPLES\RAW\Bluthner RT E0.2.wav
<group>lokey=25 hikey=28 pitch_keycenter=28 seq_length=3 seq_position=3 pitch_keytrack=1
	<region> lovel=000 hivel=127 amp_velcurve_127=1 offset=36318 loop_mode=loop_sustain loop_start=613339 loop_end=790430 sample=BLUTHNER\BLUTHNER SAMPLES\RAW\Bluthner f E0.11.wav
	<region> lovel=000 hivel=127 amp_velcurve_127=1 offset=37125 loop_mode=loop_sustain loop_start=613339 loop_end=790430 sample=BLUTHNER\BLUTHNER SAMPLES\RAW\Bluthner p E0.1.wav
	<region> lovel=000 hivel=127 amp_velcurve_127=1 volume=-96 offset=35968 end=279746 trigger=release sample=BLUTHNER\BLUTHNER SAMPLES\RAW\Bluthner RT E0.1.wav
<group>lokey=29 hikey=31 pitch_keycenter=31 seq_length=3 seq_position=1 pitch_keytrack=1
	<region> lovel=000 hivel=127 amp_velcurve_127=1 offset=35991 loop_mode=loop_sustain loop_start=612021 loop_end=701768 sample=BLUTHNER\BLUTHNER SAMPLES\RAW\Bluthner f G0.6.wav
	<region> lovel=000 hivel=127 amp_velcurve_127=1 offset=36137 loop_mode=loop_sustain loop_start=612021 loop_end=701768 sample=BLUTHNER\BLUTHNER SAMPLES\RAW\Bluthner p G0.3.wav
	<region> lovel=000 hivel=127 amp_velcurve_127=1 volume=-96 offset=35968 end=279746 trigger=release sample=BLUTHNER\BLUTHNER SAMPLES\RAW\Bluthner RT G0.3.wav
<group>lokey=29 hikey=31 pitch_keycenter=31 seq_length=3 seq_position=2 pitch_keytrack=1
	<region> lovel=000 hivel=127 amp_velcurve_127=1 offset=36318 loop_mode=loop_sustain loop_start=612021 loop_end=701768 sample=BLUTHNER\BLUTHNER SAMPLES\RAW\Bluthner f G0.4.wav
	<region> lovel=000 hivel=127 amp_velcurve_127=1 offset=36603 loop_mode=loop_sustain loop_start=612021 loop_end=701768 sample=BLUTHNER\BLUTHNER SAMPLES\RAW\Bluthner p G0.2.wav
	<region> lovel=000 hivel=127 amp_velcurve_127=1 volume=-96 offset=35968 end=279746 trigger=release sample=BLUTHNER\BLUTHNER SAMPLES\RAW\Bluthner RT G0.2.wav
<group>lokey=29 hikey=31 pitch_keycenter=31 seq_length=3 seq_position=3 pitch_keytrack=1
	<region> lovel=000 hivel=127 amp_velcurve_127=1 offset=35870 loop_mode=loop_sustain loop_start=612021 loop_end=701768 sample=BLUTHNER\BLUTHNER SAMPLES\RAW\Bluthner f G0.5.wav
	<region> lovel=000 hivel=127 amp_velcurve_127=1 offset=36536 loop_mode=loop_sustain loop_start=612021 loop_end=701768 sample=BLUTHNER\BLUTHNER SAMPLES\RAW\Bluthner p G0.1.wav
	<region> lovel=000 hivel=127 amp_velcurve_127=1 volume=-96 offset=35968 end=279746 trigger=release sample=BLUTHNER\BLUTHNER SAMPLES\RAW\Bluthner RT G0.1.wav
<group>lokey=32 hikey=35 pitch_keycenter=35 seq_length=3 seq_position=1 pitch_keytrack=1
	<region> lovel=000 hivel=127 amp_velcurve_127=1 offset=37393 loop_mode=loop_sustain loop_start=524735 loop_end=611967 sample=BLUTHNER\BLUTHNER SAMPLES\RAW\Bluthner f B0.12.wav
	<region> lovel=000 hivel=127 amp_velcurve_127=1 offset=36048 loop_mode=loop_sustain loop_start=524735 loop_end=611967 sample=BLUTHNER\BLUTHNER SAMPLES\RAW\Bluthner p B0.3.wav
	<region> lovel=000 hivel=127 amp_velcurve_127=1 volume=-96 offset=35968 end=279746 trigger=release sample=BLUTHNER\BLUTHNER SAMPLES\RAW\Bluthner RT B0.3.wav
<group>lokey=32 hikey=35 pitch_keycenter=35 seq_length=3 seq_position=2 pitch_keytrack=1
	<region> lovel=000 hivel=127 amp_velcurve_127=1 offset=36318 loop_mode=loop_sustain loop_start=524735 loop_end=611967 sample=BLUTHNER\BLUTHNER SAMPLES\RAW\Bluthner f B0.10.wav
	<region> lovel=000 hivel=127 amp_velcurve_127=1 offset=37138 loop_mode=loop_sustain loop_start=524735 loop_end=611967 sample=BLUTHNER\BLUTHNER SAMPLES\RAW\Bluthner p B0.2.wav
	<region> lovel=000 hivel=127 amp_velcurve_127=1 volume=-96 offset=35968 end=279746 trigger=release sample=BLUTHNER\BLUTHNER SAMPLES\RAW\Bluthner RT B0.2.wav
<group>lokey=32 hikey=35 pitch_keycenter=35 seq_length=3 seq_position=3 pitch_keytrack=1
	<region> lovel=000 hivel=127 amp_velcurve_127=1 offset=36318 loop_mode=loop_sustain loop_start=524735 loop_end=611967 sample=BLUTHNER\BLUTHNER SAMPLES\RAW\Bluthner f B0.11.wav
	<region> lovel=000 hivel=127 amp_velcurve_127=1 offset=37502 loop_mode=loop_sustain loop_start=524735 loop_end=611967 sample=BLUTHNER\BLUTHNER SAMPLES\RAW\Bluthner p B0.1.wav
	<region> lovel=000 hivel=127 amp_velcurve_127=1 volume=-96 offset=35968 end=279746 trigger=release sample=BLUTHNER\BLUTHNER SAMPLES\RAW\Bluthner RT B0.1.wav
<group>lokey=36 hikey=38 pitch_keycenter=38 seq_length=3 seq_position=1 pitch_keytrack=1
	<region> lovel=000 hivel=127 amp_velcurve_127=1 offset=36434 loop_mode=loop_sustain loop_start=520388 loop_end=611876 sample=BLUTHNER\BLUTHNER SAMPLES\RAW\Bluthner f D1.6.wav
	<region> lovel=000 hivel=127 amp_velcurve_127=1 offset=36048 loop_mode=loop_sustain loop_start=520388 loop_end=611876 sample=BLUTHNER\BLUTHNER SAMPLES\RAW\Bluthner p D1.3.wav
	<region> lovel=000 hivel=127 amp_velcurve_127=1 volume=-96 offset=35968 end=279746 trigger=release sample=BLUTHNER\BLUTHNER SAMPLES\RAW\Bluthner RT D1.3.wav
<group>lokey=36 hikey=38 pitch_keycenter=38 seq_length=3 seq_position=2 pitch_keytrack=1
	<region> lovel=000 hivel=127 amp_velcurve_127=1 offset=33922 loop_mode=loop_sustain loop_start=520388 loop_end=611876 sample=BLUTHNER\BLUTHNER SAMPLES\RAW\Bluthner f D1.4.wav
	<region> lovel=000 hivel=127 amp_velcurve_127=1 offset=35419 loop_mode=loop_sustain loop_start=520388 loop_end=611876 sample=BLUTHNER\BLUTHNER SAMPLES\RAW\Bluthner p D1.2.wav
	<region> lovel=000 hivel=127 amp_velcurve_127=1 volume=-96 offset=35968 end=279746 trigger=release sample=BLUTHNER\BLUTHNER SAMPLES\RAW\Bluthner RT D1.2.wav
<group>lokey=36 hikey=38 pitch_keycenter=38 seq_length=3 seq_position=3 pitch_keytrack=1
	<region> lovel=000 hivel=127 amp_velcurve_127=1 offset=37528 loop_mode=loop_sustain loop_start=520388 loop_end=611876 sample=BLUTHNER\BLUTHNER SAMPLES\RAW\Bluthner f D1.5.wav
	<region> lovel=000 hivel=127 amp_velcurve_127=1 offset=37426 loop_mode=loop_sustain loop_start=520388 loop_end=611876 sample=BLUTHNER\BLUTHNER SAMPLES\RAW\Bluthner p D1.1.wav
	<region> lovel=000 hivel=127 amp_velcurve_127=1 volume=-96 offset=35968 end=279746 trigger=release sample=BLUTHNER\BLUTHNER SAMPLES\RAW\Bluthner RT D1.1.wav
<group>lokey=39 hikey=42 pitch_keycenter=42 seq_length=3 seq_position=1 pitch_keytrack=1
	<region> lovel=000 hivel=127 amp_velcurve_127=1 offset=37298 loop_mode=loop_sustain loop_start=610727 loop_end=702309 sample=BLUTHNER\BLUTHNER SAMPLES\RAW\Bluthner f F#1.12.wav
	<region> lovel=000 hivel=127 amp_velcurve_127=1 offset=34995 loop_mode=loop_sustain loop_start=610727 loop_end=702309 sample=BLUTHNER\BLUTHNER SAMPLES\RAW\Bluthner p F#1.3.wav
	<region> lovel=000 hivel=127 amp_velcurve_127=1 volume=-96 offset=35968 end=279746 trigger=release sample=BLUTHNER\BLUTHNER SAMPLES\RAW\Bluthner RT F#1.3.wav
<group>lokey=39 hikey=42 pitch_keycenter=42 seq_length=3 seq_position=2 pitch_keytrack=1
	<region> lovel=000 hivel=127 amp_velcurve_127=1 offset=36183 loop_mode=loop_sustain loop_start=610727 loop_end=702309 sample=BLUTHNER\BLUTHNER SAMPLES\RAW\Bluthner f F#1.10.wav
	<region> lovel=000 hivel=127 amp_velcurve_127=1 offset=40157 loop_mode=loop_sustain loop_start=610727 loop_end=702309 sample=BLUTHNER\BLUTHNER SAMPLES\RAW\Bluthner p F#1.2.wav
	<region> lovel=000 hivel=127 amp_velcurve_127=1 volume=-96 offset=35968 end=279746 trigger=release sample=BLUTHNER\BLUTHNER SAMPLES\RAW\Bluthner RT F#1.2.wav
<group>lokey=39 hikey=42 pitch_keycenter=42 seq_length=3 seq_position=3 pitch_keytrack=1
	<region> lovel=000 hivel=127 amp_velcurve_127=1 offset=35336 loop_mode=loop_sustain loop_start=610727 loop_end=702309 sample=BLUTHNER\BLUTHNER SAMPLES\RAW\Bluthner f F#1.11.wav
	<region> lovel=000 hivel=127 amp_velcurve_127=1 offset=38171 loop_mode=loop_sustain loop_start=610727 loop_end=702309 sample=BLUTHNER\BLUTHNER SAMPLES\RAW\Bluthner p F#1.1.wav
	<region> lovel=000 hivel=127 amp_velcurve_127=1 volume=-96 offset=35968 end=279746 trigger=release sample=BLUTHNER\BLUTHNER SAMPLES\RAW\Bluthner RT F#1.1.wav
<group>lokey=43 hikey=45 pitch_keycenter=45 seq_length=3 seq_position=1 pitch_keytrack=1
	<region> lovel=000 hivel=127 amp_velcurve_127=1 offset=39024 loop_mode=loop_sustain loop_start=432880 loop_end=520748 sample=BLUTHNER\BLUTHNER SAMPLES\RAW\Bluthner f A1.9.wav
	<region> lovel=000 hivel=127 amp_velcurve_127=1 offset=38341 loop_mode=loop_sustain loop_start=432880 loop_end=520748 sample=BLUTHNER\BLUTHNER SAMPLES\RAW\Bluthner p A1.3.wav
	<region> lovel=000 hivel=127 amp_velcurve_127=1 volume=-96 offset=35968 end=279746 trigger=release sample=BLUTHNER\BLUTHNER SAMPLES\RAW\Bluthner RT A1.3.wav
<group>lokey=43 hikey=45 pitch_keycenter=45 seq_length=3 seq_position=2 pitch_keytrack=1
	<region> lovel=000 hivel=127 amp_velcurve_127=1 offset=37457 loop_mode=loop_sustain loop_start=432880 loop_end=520748 sample=BLUTHNER\BLUTHNER SAMPLES\RAW\Bluthner f A1.7.wav
	<region> lovel=000 hivel=127 amp_velcurve_127=1 offset=38527 loop_mode=loop_sustain loop_start=432880 loop_end=520748 sample=BLUTHNER\BLUTHNER SAMPLES\RAW\Bluthner p A1.2.wav
	<region> lovel=000 hivel=127 amp_velcurve_127=1 volume=-96 offset=35968 end=279746 trigger=release sample=BLUTHNER\BLUTHNER SAMPLES\RAW\Bluthner RT A1.2.wav
<group>lokey=43 hikey=45 pitch_keycenter=45 seq_length=3 seq_position=3 pitch_keytrack=1
	<region> lovel=000 hivel=127 amp_velcurve_127=1 offset=36318 loop_mode=loop_sustain loop_start=432880 loop_end=520748 sample=BLUTHNER\BLUTHNER SAMPLES\RAW\Bluthner f A1.8.wav
	<region> lovel=000 hivel=127 amp_velcurve_127=1 offset=36830 loop_mode=loop_sustain loop_start=432880 loop_end=520748 sample=BLUTHNER\BLUTHNER SAMPLES\RAW\Bluthner p A1.1.wav
	<region> lovel=000 hivel=127 amp_velcurve_127=1 volume=-96 offset=35968 end=279746 trigger=release sample=BLUTHNER\BLUTHNER SAMPLES\RAW\Bluthner RT A1.1.wav
<group>lokey=46 hikey=49 pitch_keycenter=49 seq_length=3 seq_position=1 pitch_keytrack=1
	<region> lovel=000 hivel=127 amp_velcurve_127=1 offset=34550 loop_mode=loop_sustain loop_start=521106 loop_end=612636 sample=BLUTHNER\BLUTHNER SAMPLES\RAW\Bluthner f C#2.12.wav
	<region> lovel=000 hivel=127 amp_velcurve_127=1 offset=35676 loop_mode=loop_sustain loop_start=521106 loop_end=612636 sample=BLUTHNER\BLUTHNER SAMPLES\RAW\Bluthner p C#2.6.wav
	<region> lovel=000 hivel=127 amp_velcurve_127=1 volume=-96 offset=35968 end=279746 trigger=release sample=BLUTHNER\BLUTHNER SAMPLES\RAW\Bluthner RT C#2.6.wav
<group>lokey=46 hikey=49 pitch_keycenter=49 seq_length=3 seq_position=2 pitch_keytrack=1
	<region> lovel=000 hivel=127 amp_velcurve_127=1 offset=38100 loop_mode=loop_sustain loop_start=521106 loop_end=612636 sample=BLUTHNER\BLUTHNER SAMPLES\RAW\Bluthner f C#2.10.wav
	<region> lovel=000 hivel=127 amp_velcurve_127=1 offset=37418 loop_mode=loop_sustain loop_start=521106 loop_end=612636 sample=BLUTHNER\BLUTHNER SAMPLES\RAW\Bluthner p C#2.5.wav
	<region> lovel=000 hivel=127 amp_velcurve_127=1 volume=-96 offset=35968 end=279746 trigger=release sample=BLUTHNER\BLUTHNER SAMPLES\RAW\Bluthner RT C#2.5.wav
<group>lokey=46 hikey=49 pitch_keycenter=49 seq_length=3 seq_position=3 pitch_keytrack=1
	<region> lovel=000 hivel=127 amp_velcurve_127=1 offset=35063 loop_mode=loop_sustain loop_start=521106 loop_end=612636 sample=BLUTHNER\BLUTHNER SAMPLES\RAW\Bluthner f C#2.11.wav
	<region> lovel=000 hivel=127 amp_velcurve_127=1 offset=38577 loop_mode=loop_sustain loop_start=521106 loop_end=612636 sample=BLUTHNER\BLUTHNER SAMPLES\RAW\Bluthner p C#2.4.wav
	<region> lovel=000 hivel=127 amp_velcurve_127=1 volume=-96 offset=35968 end=279746 trigger=release sample=BLUTHNER\BLUTHNER SAMPLES\RAW\Bluthner RT C#2.4.wav
<group>lokey=50 hikey=52 pitch_keycenter=52 seq_length=3 seq_position=1 pitch_keytrack=1
	<region> lovel=000 hivel=127 amp_velcurve_127=1 offset=37574 loop_mode=loop_sustain loop_start=521880 loop_end=612220 sample=BLUTHNER\BLUTHNER SAMPLES\RAW\Bluthner f E2.15.wav
	<region> lovel=000 hivel=127 amp_velcurve_127=1 offset=36909 loop_mode=loop_sustain loop_start=521880 loop_end=612220 sample=BLUTHNER\BLUTHNER SAMPLES\RAW\Bluthner p E2.6.wav
	<region> lovel=000 hivel=127 amp_velcurve_127=1 volume=-96 offset=35968 end=279746 trigger=release sample=BLUTHNER\BLUTHNER SAMPLES\RAW\Bluthner RT E2.6.wav
<group>lokey=50 hikey=52 pitch_keycenter=52 seq_length=3 seq_position=2 pitch_keytrack=1
	<region> lovel=000 hivel=127 amp_velcurve_127=1 offset=34983 loop_mode=loop_sustain loop_start=521880 loop_end=612220 sample=BLUTHNER\BLUTHNER SAMPLES\RAW\Bluthner f E2.13.wav
	<region> lovel=000 hivel=127 amp_velcurve_127=1 offset=35439 loop_mode=loop_sustain loop_start=521880 loop_end=612220 sample=BLUTHNER\BLUTHNER SAMPLES\RAW\Bluthner p E2.5.wav
	<region> lovel=000 hivel=127 amp_velcurve_127=1 volume=-96 offset=35968 end=279746 trigger=release sample=BLUTHNER\BLUTHNER SAMPLES\RAW\Bluthner RT E2.5.wav
<group>lokey=50 hikey=52 pitch_keycenter=52 seq_length=3 seq_position=3 pitch_keytrack=1
	<region> lovel=000 hivel=127 amp_velcurve_127=1 offset=36138 loop_mode=loop_sustain loop_start=521880 loop_end=612220 sample=BLUTHNER\BLUTHNER SAMPLES\RAW\Bluthner f E2.14.wav
	<region> lovel=000 hivel=127 amp_velcurve_127=1 offset=38041 loop_mode=loop_sustain loop_start=521880 loop_end=612220 sample=BLUTHNER\BLUTHNER SAMPLES\RAW\Bluthner p E2.4.wav
	<region> lovel=000 hivel=127 amp_velcurve_127=1 volume=-96 offset=35968 end=279746 trigger=release sample=BLUTHNER\BLUTHNER SAMPLES\RAW\Bluthner RT E2.4.wav
<group>lokey=53 hikey=56 pitch_keycenter=56 seq_length=3 seq_position=1 pitch_keytrack=1
	<region> lovel=000 hivel=127 amp_velcurve_127=1 offset=33442 loop_mode=loop_sustain loop_start=431964 loop_end=521953 sample=BLUTHNER\BLUTHNER SAMPLES\RAW\Bluthner f G#2.12.wav
	<region> lovel=000 hivel=127 amp_velcurve_127=1 offset=36889 loop_mode=loop_sustain loop_start=431964 loop_end=521953 sample=BLUTHNER\BLUTHNER SAMPLES\RAW\Bluthner p G#2.6.wav
	<region> lovel=000 hivel=127 amp_velcurve_127=1 volume=-96 offset=35968 end=279746 trigger=release sample=BLUTHNER\BLUTHNER SAMPLES\RAW\Bluthner RT G#2.6.wav
<group>lokey=53 hikey=56 pitch_keycenter=56 seq_length=3 seq_position=2 pitch_keytrack=1
	<region> lovel=000 hivel=127 amp_velcurve_127=1 offset=36318 loop_mode=loop_sustain loop_start=431964 loop_end=521953 sample=BLUTHNER\BLUTHNER SAMPLES\RAW\Bluthner f G#2.10.wav
	<region> lovel=000 hivel=127 amp_velcurve_127=1 offset=39303 loop_mode=loop_sustain loop_start=431964 loop_end=521953 sample=BLUTHNER\BLUTHNER SAMPLES\RAW\Bluthner p G#2.5.wav
	<region> lovel=000 hivel=127 amp_velcurve_127=1 volume=-96 offset=35968 end=279746 trigger=release sample=BLUTHNER\BLUTHNER SAMPLES\RAW\Bluthner RT G#2.5.wav
<group>lokey=53 hikey=56 pitch_keycenter=56 seq_length=3 seq_position=3 pitch_keytrack=1
	<region> lovel=000 hivel=127 amp_velcurve_127=1 offset=37754 loop_mode=loop_sustain loop_start=431964 loop_end=521953 sample=BLUTHNER\BLUTHNER SAMPLES\RAW\Bluthner f G#2.11.wav
	<region> lovel=000 hivel=127 amp_velcurve_127=1 offset=38318 loop_mode=loop_sustain loop_start=431964 loop_end=521953 sample=BLUTHNER\BLUTHNER SAMPLES\RAW\Bluthner p G#2.4.wav
	<region> lovel=000 hivel=127 amp_velcurve_127=1 volume=-96 offset=35968 end=279746 trigger=release sample=BLUTHNER\BLUTHNER SAMPLES\RAW\Bluthner RT G#2.4.wav
<group>lokey=57 hikey=59 pitch_keycenter=59 seq_length=3 seq_position=1 pitch_keytrack=1
	<region> lovel=000 hivel=127 amp_velcurve_127=1 offset=35511 loop_mode=loop_sustain loop_start=432544 loop_end=523168 sample=BLUTHNER\BLUTHNER SAMPLES\RAW\Bluthner f B2.15.wav
	<region> lovel=000 hivel=127 amp_velcurve_127=1 offset=35967 loop_mode=loop_sustain loop_start=432544 loop_end=523168 sample=BLUTHNER\BLUTHNER SAMPLES\RAW\Bluthner p B2.6.wav
	<region> lovel=000 hivel=127 amp_velcurve_127=1 volume=-96 offset=35968 end=279746 trigger=release sample=BLUTHNER\BLUTHNER SAMPLES\RAW\Bluthner RT B2.6.wav
<group>lokey=57 hikey=59 pitch_keycenter=59 seq_length=3 seq_position=2 pitch_keytrack=1
	<region> lovel=000 hivel=127 amp_velcurve_127=1 offset=35692 loop_mode=loop_sustain loop_start=432544 loop_end=523168 sample=BLUTHNER\BLUTHNER SAMPLES\RAW\Bluthner f B2.13.wav
	<region> lovel=000 hivel=127 amp_velcurve_127=1 offset=33993 loop_mode=loop_sustain loop_start=432544 loop_end=523168 sample=BLUTHNER\BLUTHNER SAMPLES\RAW\Bluthner p B2.5.wav
	<region> lovel=000 hivel=127 amp_velcurve_127=1 volume=-96 offset=35968 end=279746 trigger=release sample=BLUTHNER\BLUTHNER SAMPLES\RAW\Bluthner RT B2.5.wav
<group>lokey=57 hikey=59 pitch_keycenter=59 seq_length=3 seq_position=3 pitch_keytrack=1
	<region> lovel=000 hivel=127 amp_velcurve_127=1 offset=34808 loop_mode=loop_sustain loop_start=432544 loop_end=523168 sample=BLUTHNER\BLUTHNER SAMPLES\RAW\Bluthner f B2.14.wav
	<region> lovel=000 hivel=127 amp_velcurve_127=1 offset=36011 loop_mode=loop_sustain loop_start=432544 loop_end=523168 sample=BLUTHNER\BLUTHNER SAMPLES\RAW\Bluthner p B2.4.wav
	<region> lovel=000 hivel=127 amp_velcurve_127=1 volume=-96 offset=35968 end=279746 trigger=release sample=BLUTHNER\BLUTHNER SAMPLES\RAW\Bluthner RT B2.4.wav
<group>lokey=60 hikey=63 pitch_keycenter=63 seq_length=3 seq_position=1 pitch_keytrack=1
	<region> lovel=000 hivel=127 amp_velcurve_127=1 offset=36318 loop_mode=loop_sustain loop_start=287486 loop_end=360056 sample=BLUTHNER\BLUTHNER SAMPLES\RAW\Bluthner f D#3.15.wav
	<region> lovel=000 hivel=127 amp_velcurve_127=1 offset=37644 loop_mode=loop_sustain loop_start=287486 loop_end=360056 sample=BLUTHNER\BLUTHNER SAMPLES\RAW\Bluthner p D#3.6.wav
	<region> lovel=000 hivel=127 amp_velcurve_127=1 volume=-96 offset=35968 end=279746 trigger=release sample=BLUTHNER\BLUTHNER SAMPLES\RAW\Bluthner RT D#3.6.wav
<group>lokey=60 hikey=63 pitch_keycenter=63 seq_length=3 seq_position=2 pitch_keytrack=1
	<region> lovel=000 hivel=127 amp_velcurve_127=1 offset=36318 loop_mode=loop_sustain loop_start=287486 loop_end=360056 sample=BLUTHNER\BLUTHNER SAMPLES\RAW\Bluthner f D#3.13.wav
	<region> lovel=000 hivel=127 amp_velcurve_127=1 offset=36564 loop_mode=loop_sustain loop_start=287486 loop_end=360056 sample=BLUTHNER\BLUTHNER SAMPLES\RAW\Bluthner p D#3.5.wav
	<region> lovel=000 hivel=127 amp_velcurve_127=1 volume=-96 offset=35968 end=279746 trigger=release sample=BLUTHNER\BLUTHNER SAMPLES\RAW\Bluthner RT D#3.5.wav
<group>lokey=60 hikey=63 pitch_keycenter=63 seq_length=3 seq_position=3 pitch_keytrack=1
	<region> lovel=000 hivel=127 amp_velcurve_127=1 offset=37057 loop_mode=loop_sustain loop_start=287486 loop_end=360056 sample=BLUTHNER\BLUTHNER SAMPLES\RAW\Bluthner f D#3.14.wav
	<region> lovel=000 hivel=127 amp_velcurve_127=1 offset=37809 loop_mode=loop_sustain loop_start=287486 loop_end=360056 sample=BLUTHNER\BLUTHNER SAMPLES\RAW\Bluthner p D#3.4.wav
	<region> lovel=000 hivel=127 amp_velcurve_127=1 volume=-96 offset=35968 end=279746 trigger=release sample=BLUTHNER\BLUTHNER SAMPLES\RAW\Bluthner RT D#3.4.wav
<group>lokey=64 hikey=66 pitch_keycenter=66 seq_length=3 seq_position=1 pitch_keytrack=1
	<region> lovel=000 hivel=127 amp_velcurve_127=1 offset=35598 loop_mode=loop_sustain loop_start=287352 loop_end=432005 sample=BLUTHNER\BLUTHNER SAMPLES\RAW\Bluthner f F#3.15.wav
	<region> lovel=000 hivel=127 amp_velcurve_127=1 offset=35580 loop_mode=loop_sustain loop_start=287352 loop_end=432005 sample=BLUTHNER\BLUTHNER SAMPLES\RAW\Bluthner p F#3.6.wav
	<region> lovel=000 hivel=127 amp_velcurve_127=1 volume=-96 offset=35968 end=279746 trigger=release sample=BLUTHNER\BLUTHNER SAMPLES\RAW\Bluthner RT F#3.6.wav
<group>lokey=64 hikey=66 pitch_keycenter=66 seq_length=3 seq_position=2 pitch_keytrack=1
	<region> lovel=000 hivel=127 amp_velcurve_127=1 offset=37476 loop_mode=loop_sustain loop_start=287352 loop_end=432005 sample=BLUTHNER\BLUTHNER SAMPLES\RAW\Bluthner f F#3.13.wav
	<region> lovel=000 hivel=127 amp_velcurve_127=1 offset=36070 loop_mode=loop_sustain loop_start=287352 loop_end=432005 sample=BLUTHNER\BLUTHNER SAMPLES\RAW\Bluthner p F#3.5.wav
	<region> lovel=000 hivel=127 amp_velcurve_127=1 volume=-96 offset=35968 end=279746 trigger=release sample=BLUTHNER\BLUTHNER SAMPLES\RAW\Bluthner RT F#3.5.wav
<group>lokey=64 hikey=66 pitch_keycenter=66 seq_length=3 seq_position=3 pitch_keytrack=1
	<region> lovel=000 hivel=127 amp_velcurve_127=1 offset=35027 loop_mode=loop_sustain loop_start=287352 loop_end=432005 sample=BLUTHNER\BLUTHNER SAMPLES\RAW\Bluthner f F#3.14.wav
	<region> lovel=000 hivel=127 amp_velcurve_127=1 offset=38552 loop_mode=loop_sustain loop_start=287352 loop_end=432005 sample=BLUTHNER\BLUTHNER SAMPLES\RAW\Bluthner p F#3.4.wav
	<region> lovel=000 hivel=127 amp_velcurve_127=1 volume=-96 offset=35968 end=279746 trigger=release sample=BLUTHNER\BLUTHNER SAMPLES\RAW\Bluthner RT F#3.4.wav
<group>lokey=67 hikey=69 pitch_keycenter=69 seq_length=3 seq_position=1 pitch_keytrack=1
	<region> lovel=000 hivel=127 amp_velcurve_127=1 offset=33835 loop_mode=loop_sustain loop_start=142523 loop_end=288788 sample=BLUTHNER\BLUTHNER SAMPLES\RAW\Bluthner f A3.12.wav
	<region> lovel=000 hivel=127 amp_velcurve_127=1 offset=33698 loop_mode=loop_sustain loop_start=142523 loop_end=288788 sample=BLUTHNER\BLUTHNER SAMPLES\RAW\Bluthner p A3.6.wav
	<region> lovel=000 hivel=127 amp_velcurve_127=1 volume=-96 offset=35968 end=279746 trigger=release sample=BLUTHNER\BLUTHNER SAMPLES\RAW\Bluthner RT A3.6.wav
<group>lokey=67 hikey=69 pitch_keycenter=69 seq_length=3 seq_position=2 pitch_keytrack=1
	<region> lovel=000 hivel=127 amp_velcurve_127=1 offset=35889 loop_mode=loop_sustain loop_start=142523 loop_end=288788 sample=BLUTHNER\BLUTHNER SAMPLES\RAW\Bluthner f A3.10.wav
	<region> lovel=000 hivel=127 amp_velcurve_127=1 offset=34374 loop_mode=loop_sustain loop_start=142523 loop_end=288788 sample=BLUTHNER\BLUTHNER SAMPLES\RAW\Bluthner p A3.5.wav
	<region> lovel=000 hivel=127 amp_velcurve_127=1 volume=-96 offset=35968 end=279746 trigger=release sample=BLUTHNER\BLUTHNER SAMPLES\RAW\Bluthner RT A3.5.wav
<group>lokey=67 hikey=69 pitch_keycenter=69 seq_length=3 seq_position=3 pitch_keytrack=1
	<region> lovel=000 hivel=127 amp_velcurve_127=1 offset=33193 end=529673 loop_mode=loop_sustain loop_start=142523 loop_end=288788 sample=BLUTHNER\BLUTHNER SAMPLES\RAW\Bluthner f A3.11.wav
	<region> lovel=000 hivel=127 amp_velcurve_127=1 offset=36048 loop_mode=loop_sustain loop_start=142523 loop_end=288788 sample=BLUTHNER\BLUTHNER SAMPLES\RAW\Bluthner p A3.4.wav
	<region> lovel=000 hivel=127 amp_velcurve_127=1 volume=-96 offset=35968 end=279746 trigger=release sample=BLUTHNER\BLUTHNER SAMPLES\RAW\Bluthner RT A3.4.wav
<group>lokey=70 hikey=73 pitch_keycenter=73 seq_length=3 seq_position=1 pitch_keytrack=1
	<region> lovel=000 hivel=127 amp_velcurve_127=1 offset=34371 loop_mode=loop_sustain loop_start=144099 loop_end=288107 sample=BLUTHNER\BLUTHNER SAMPLES\RAW\Bluthner f C#4.15.wav
	<region> lovel=000 hivel=127 amp_velcurve_127=1 offset=37730 loop_mode=loop_sustain loop_start=144099 loop_end=288107 sample=BLUTHNER\BLUTHNER SAMPLES\RAW\Bluthner p C#4.9.wav
	<region> lovel=000 hivel=127 amp_velcurve_127=1 volume=-96 offset=35968 end=279746 trigger=release sample=BLUTHNER\BLUTHNER SAMPLES\RAW\Bluthner RT C#4.9.wav
<group>lokey=70 hikey=73 pitch_keycenter=73 seq_length=3 seq_position=2 pitch_keytrack=1
	<region> lovel=000 hivel=127 amp_velcurve_127=1 offset=35108 loop_mode=loop_sustain loop_start=144099 loop_end=288107 sample=BLUTHNER\BLUTHNER SAMPLES\RAW\Bluthner f C#4.13.wav
	<region> lovel=000 hivel=127 amp_velcurve_127=1 offset=34298 loop_mode=loop_sustain loop_start=144099 loop_end=288107 sample=BLUTHNER\BLUTHNER SAMPLES\RAW\Bluthner p C#4.8.wav
	<region> lovel=000 hivel=127 amp_velcurve_127=1 volume=-96 offset=35968 end=279746 trigger=release sample=BLUTHNER\BLUTHNER SAMPLES\RAW\Bluthner RT C#4.8.wav
<group>lokey=70 hikey=73 pitch_keycenter=73 seq_length=3 seq_position=3 pitch_keytrack=1
	<region> lovel=000 hivel=127 amp_velcurve_127=1 offset=35537 loop_mode=loop_sustain loop_start=144099 loop_end=288107 sample=BLUTHNER\BLUTHNER SAMPLES\RAW\Bluthner f C#4.14.wav
	<region> lovel=000 hivel=127 amp_velcurve_127=1 offset=36684 loop_mode=loop_sustain loop_start=144099 loop_end=288107 sample=BLUTHNER\BLUTHNER SAMPLES\RAW\Bluthner p C#4.7.wav
	<region> lovel=000 hivel=127 amp_velcurve_127=1 volume=-96 offset=35968 end=279746 trigger=release sample=BLUTHNER\BLUTHNER SAMPLES\RAW\Bluthner RT C#4.7.wav
<group>lokey=74 hikey=76 pitch_keycenter=76 seq_length=3 seq_position=1 pitch_keytrack=1
	<region> lovel=000 hivel=127 amp_velcurve_127=1 offset=35300 loop_mode=loop_sustain loop_start=142523 loop_end=288107 sample=BLUTHNER\BLUTHNER SAMPLES\RAW\Bluthner f E4.18.wav
	<region> lovel=000 hivel=127 amp_velcurve_127=1 offset=38671 loop_mode=loop_sustain loop_start=142523 loop_end=288107 sample=BLUTHNER\BLUTHNER SAMPLES\RAW\Bluthner p E4.9.wav
	<region> lovel=000 hivel=127 amp_velcurve_127=1 volume=-96 offset=35968 end=279746 trigger=release sample=BLUTHNER\BLUTHNER SAMPLES\RAW\Bluthner RT E4.9.wav
<group>lokey=74 hikey=76 pitch_keycenter=76 seq_length=3 seq_position=2 pitch_keytrack=1
	<region> lovel=000 hivel=127 amp_velcurve_127=1 offset=35462 loop_mode=loop_sustain loop_start=142523 loop_end=288107 sample=BLUTHNER\BLUTHNER SAMPLES\RAW\Bluthner f E4.16.wav
	<region> lovel=000 hivel=127 amp_velcurve_127=1 offset=36048 loop_mode=loop_sustain loop_start=142523 loop_end=288107 sample=BLUTHNER\BLUTHNER SAMPLES\RAW\Bluthner p E4.8.wav
	<region> lovel=000 hivel=127 amp_velcurve_127=1 volume=-96 offset=35968 end=279746 trigger=release sample=BLUTHNER\BLUTHNER SAMPLES\RAW\Bluthner RT E4.8.wav
<group>lokey=74 hikey=76 pitch_keycenter=76 seq_length=3 seq_position=3 pitch_keytrack=1
	<region> lovel=000 hivel=127 amp_velcurve_127=1 offset=31647 loop_mode=loop_sustain loop_start=142523 loop_end=288107 sample=BLUTHNER\BLUTHNER SAMPLES\RAW\Bluthner f E4.17.wav
	<region> lovel=000 hivel=127 amp_velcurve_127=1 offset=33111 loop_mode=loop_sustain loop_start=144022 loop_end=288412 sample=BLUTHNER\BLUTHNER SAMPLES\RAW\Bluthner p E4.7.wav
	<region> lovel=000 hivel=127 amp_velcurve_127=1 volume=-96 offset=35968 end=279746 trigger=release sample=BLUTHNER\BLUTHNER SAMPLES\RAW\Bluthner RT E4.7.wav
<group>lokey=77 hikey=80 pitch_keycenter=80 seq_length=3 seq_position=1 pitch_keytrack=1
	<region> lovel=000 hivel=127 amp_velcurve_127=1 offset=36836 loop_mode=loop_sustain loop_start=142523 loop_end=288107 sample=BLUTHNER\BLUTHNER SAMPLES\RAW\Bluthner f G#4.15.wav
	<region> lovel=000 hivel=127 amp_velcurve_127=1 offset=33318 loop_mode=loop_sustain loop_start=142523 loop_end=288107 sample=BLUTHNER\BLUTHNER SAMPLES\RAW\Bluthner p G#4.9.wav
	<region> lovel=000 hivel=127 amp_velcurve_127=1 volume=-96 offset=35968 end=279746 trigger=release sample=BLUTHNER\BLUTHNER SAMPLES\RAW\Bluthner RT G#4.9.wav
<group>lokey=77 hikey=80 pitch_keycenter=80 seq_length=3 seq_position=2 pitch_keytrack=1
	<region> lovel=000 hivel=127 amp_velcurve_127=1 offset=39566 loop_mode=loop_sustain loop_start=142523 loop_end=288107 sample=BLUTHNER\BLUTHNER SAMPLES\RAW\Bluthner f G#4.13.wav
	<region> lovel=000 hivel=127 amp_velcurve_127=1 offset=37613 loop_mode=loop_sustain loop_start=142523 loop_end=288107 sample=BLUTHNER\BLUTHNER SAMPLES\RAW\Bluthner p G#4.8.wav
	<region> lovel=000 hivel=127 amp_velcurve_127=1 volume=-96 offset=35968 end=279746 trigger=release sample=BLUTHNER\BLUTHNER SAMPLES\RAW\Bluthner RT G#4.8.wav
<group>lokey=77 hikey=80 pitch_keycenter=80 seq_length=3 seq_position=3 pitch_keytrack=1
	<region> lovel=000 hivel=127 amp_velcurve_127=1 offset=35944 loop_mode=loop_sustain loop_start=142523 loop_end=288107 sample=BLUTHNER\BLUTHNER SAMPLES\RAW\Bluthner f G#4.14.wav
	<region> lovel=000 hivel=127 amp_velcurve_127=1 offset=37878 loop_mode=loop_sustain loop_start=143283 loop_end=290686 sample=BLUTHNER\BLUTHNER SAMPLES\RAW\Bluthner p G#4.7.wav
	<region> lovel=000 hivel=127 amp_velcurve_127=1 volume=-96 offset=35968 end=279746 trigger=release sample=BLUTHNER\BLUTHNER SAMPLES\RAW\Bluthner RT G#4.7.wav
<group>lokey=81 hikey=83 pitch_keycenter=83 seq_length=3 seq_position=1 pitch_keytrack=1
	<region> lovel=000 hivel=127 amp_velcurve_127=1 offset=35789 loop_mode=loop_sustain loop_start=142523 loop_end=288107 sample=BLUTHNER\BLUTHNER SAMPLES\RAW\Bluthner f B4.18.wav
	<region> lovel=000 hivel=127 amp_velcurve_127=1 offset=35008 loop_mode=loop_sustain loop_start=142523 loop_end=288107 sample=BLUTHNER\BLUTHNER SAMPLES\RAW\Bluthner p B4.9.wav
	<region> lovel=000 hivel=127 amp_velcurve_127=1 volume=-96 offset=35968 end=279746 trigger=release sample=BLUTHNER\BLUTHNER SAMPLES\RAW\Bluthner RT B4.9.wav
<group>lokey=81 hikey=83 pitch_keycenter=83 seq_length=3 seq_position=2 pitch_keytrack=1
	<region> lovel=000 hivel=127 amp_velcurve_127=1 offset=36169 loop_mode=loop_sustain loop_start=142523 loop_end=288107 sample=BLUTHNER\BLUTHNER SAMPLES\RAW\Bluthner f B4.16.wav
	<region> lovel=000 hivel=127 amp_velcurve_127=1 offset=35902 loop_mode=loop_sustain loop_start=142523 loop_end=288107 sample=BLUTHNER\BLUTHNER SAMPLES\RAW\Bluthner p B4.8.wav
	<region> lovel=000 hivel=127 amp_velcurve_127=1 volume=-96 offset=35968 end=279746 trigger=release sample=BLUTHNER\BLUTHNER SAMPLES\RAW\Bluthner RT B4.8.wav
<group>lokey=81 hikey=83 pitch_keycenter=83 seq_length=3 seq_position=3 pitch_keytrack=1
	<region> lovel=000 hivel=127 amp_velcurve_127=1 offset=36574 loop_mode=loop_sustain loop_start=142523 loop_end=288107 sample=BLUTHNER\BLUTHNER SAMPLES\RAW\Bluthner f B4.17.wav
	<region> lovel=000 hivel=127 amp_velcurve_127=1 offset=34911 loop_mode=loop_sustain loop_start=142169 loop_end=288186 sample=BLUTHNER\BLUTHNER SAMPLES\RAW\Bluthner p B4.7.wav
	<region> lovel=000 hivel=127 amp_velcurve_127=1 volume=-96 offset=35968 end=279746 trigger=release sample=BLUTHNER\BLUTHNER SAMPLES\RAW\Bluthner RT B4.7.wav
<group>lokey=84 hikey=87 pitch_keycenter=87 seq_length=3 seq_position=1 pitch_keytrack=1
	<region> lovel=000 hivel=127 amp_velcurve_127=1 offset=38946 loop_mode=loop_sustain loop_start=142523 loop_end=288107 sample=BLUTHNER\BLUTHNER SAMPLES\RAW\Bluthner f D#5.18.wav
	<region> lovel=000 hivel=127 amp_velcurve_127=1 offset=38260 end=479069 loop_mode=loop_sustain loop_start=142523 loop_end=288107 sample=BLUTHNER\BLUTHNER SAMPLES\RAW\Bluthner p D#5.9.wav
	<region> lovel=000 hivel=127 amp_velcurve_127=1 volume=-96 offset=35968 end=279746 trigger=release sample=BLUTHNER\BLUTHNER SAMPLES\RAW\Bluthner RT D#5.9.wav
<group>lokey=84 hikey=87 pitch_keycenter=87 seq_length=3 seq_position=2 pitch_keytrack=1
	<region> lovel=000 hivel=127 amp_velcurve_127=1 offset=35120 loop_mode=loop_sustain loop_start=142523 loop_end=288107 sample=BLUTHNER\BLUTHNER SAMPLES\RAW\Bluthner f D#5.16.wav
	<region> lovel=000 hivel=127 amp_velcurve_127=1 offset=35848 loop_mode=loop_sustain loop_start=142523 loop_end=288107 sample=BLUTHNER\BLUTHNER SAMPLES\RAW\Bluthner p D#5.8.wav
	<region> lovel=000 hivel=127 amp_velcurve_127=1 volume=-96 offset=35968 end=279746 trigger=release sample=BLUTHNER\BLUTHNER SAMPLES\RAW\Bluthner RT D#5.8.wav
<group>lokey=84 hikey=87 pitch_keycenter=87 seq_length=3 seq_position=3 pitch_keytrack=1
	<region> lovel=000 hivel=127 amp_velcurve_127=1 offset=34485 loop_mode=loop_sustain loop_start=142523 loop_end=288107 sample=BLUTHNER\BLUTHNER SAMPLES\RAW\Bluthner f D#5.17.wav
	<region> lovel=000 hivel=127 amp_velcurve_127=1 offset=37678 loop_mode=loop_sustain loop_start=143786 loop_end=288193 sample=BLUTHNER\BLUTHNER SAMPLES\RAW\Bluthner p D#5.7.wav
	<region> lovel=000 hivel=127 amp_velcurve_127=1 volume=-96 offset=35968 end=279746 trigger=release sample=BLUTHNER\BLUTHNER SAMPLES\RAW\Bluthner RT D#5.7.wav
<group>lokey=88 hikey=90 pitch_keycenter=90 seq_length=3 seq_position=1 pitch_keytrack=1
	<region> lovel=000 hivel=127 amp_velcurve_127=1 offset=38845 loop_mode=loop_sustain loop_start=142523 loop_end=288107 sample=BLUTHNER\BLUTHNER SAMPLES\RAW\Bluthner f F#5.18.wav
	<region> lovel=000 hivel=127 amp_velcurve_127=1 offset=33923 loop_mode=loop_sustain loop_start=142523 loop_end=288107 sample=BLUTHNER\BLUTHNER SAMPLES\RAW\Bluthner p F#5.9.wav
	<region> lovel=000 hivel=127 amp_velcurve_127=1 volume=-96 offset=35968 end=279746 trigger=release sample=BLUTHNER\BLUTHNER SAMPLES\RAW\Bluthner RT F#5.9.wav
<group>lokey=88 hikey=90 pitch_keycenter=90 seq_length=3 seq_position=2 pitch_keytrack=1
	<region> lovel=000 hivel=127 amp_velcurve_127=1 offset=35698 loop_mode=loop_sustain loop_start=142523 loop_end=288107 sample=BLUTHNER\BLUTHNER SAMPLES\RAW\Bluthner f F#5.16.wav
	<region> lovel=000 hivel=127 amp_velcurve_127=1 offset=36791 loop_mode=loop_sustain loop_start=142523 loop_end=288107 sample=BLUTHNER\BLUTHNER SAMPLES\RAW\Bluthner p F#5.8.wav
	<region> lovel=000 hivel=127 amp_velcurve_127=1 volume=-96 offset=35968 end=279746 trigger=release sample=BLUTHNER\BLUTHNER SAMPLES\RAW\Bluthner RT F#5.8.wav
<group>lokey=88 hikey=90 pitch_keycenter=90 seq_length=3 seq_position=3 pitch_keytrack=1
	<region> lovel=000 hivel=127 amp_velcurve_127=1 offset=36576 loop_mode=loop_sustain loop_start=142523 loop_end=288107 sample=BLUTHNER\BLUTHNER SAMPLES\RAW\Bluthner f F#5.17.wav
	<region> lovel=000 hivel=127 amp_velcurve_127=1 offset=38608 loop_mode=loop_sustain loop_start=143527 loop_end=288158 sample=BLUTHNER\BLUTHNER SAMPLES\RAW\Bluthner p F#5.7.wav
	<region> lovel=000 hivel=127 amp_velcurve_127=1 volume=-96 offset=35968 end=279746 trigger=release sample=BLUTHNER\BLUTHNER SAMPLES\RAW\Bluthner RT F#5.7.wav
<group>lokey=91 hikey=94 pitch_keycenter=94 seq_length=3 seq_position=1 pitch_keytrack=1
	<region> lovel=000 hivel=127 amp_velcurve_127=1 offset=34685 loop_mode=loop_sustain loop_start=142523 loop_end=288107 sample=BLUTHNER\BLUTHNER SAMPLES\RAW\Bluthner f A#5.15.wav
	<region> lovel=000 hivel=127 amp_velcurve_127=1 offset=37528 loop_mode=loop_sustain loop_start=142523 loop_end=288107 sample=BLUTHNER\BLUTHNER SAMPLES\RAW\Bluthner p A#5.9.wav
	<region> lovel=000 hivel=127 amp_velcurve_127=1 volume=-96 offset=35968 end=279746 trigger=release sample=BLUTHNER\BLUTHNER SAMPLES\RAW\Bluthner RT A#5.9.wav
<group>lokey=91 hikey=94 pitch_keycenter=94 seq_length=3 seq_position=2 pitch_keytrack=1
	<region> lovel=000 hivel=127 amp_velcurve_127=1 offset=40121 loop_mode=loop_sustain loop_start=142523 loop_end=288107 sample=BLUTHNER\BLUTHNER SAMPLES\RAW\Bluthner f A#5.13.wav
	<region> lovel=000 hivel=127 amp_velcurve_127=1 offset=36048 loop_mode=loop_sustain loop_start=142523 loop_end=288107 sample=BLUTHNER\BLUTHNER SAMPLES\RAW\Bluthner p A#5.8.wav
	<region> lovel=000 hivel=127 amp_velcurve_127=1 volume=-96 offset=35968 end=279746 trigger=release sample=BLUTHNER\BLUTHNER SAMPLES\RAW\Bluthner RT A#5.8.wav
<group>lokey=91 hikey=94 pitch_keycenter=94 seq_length=3 seq_position=3 pitch_keytrack=1
	<region> lovel=000 hivel=127 amp_velcurve_127=1 offset=34290 loop_mode=loop_sustain loop_start=142523 loop_end=288107 sample=BLUTHNER\BLUTHNER SAMPLES\RAW\Bluthner f A#5.14.wav
	<region> lovel=000 hivel=127 amp_velcurve_127=1 offset=38868 loop_mode=loop_sustain loop_start=143758 loop_end=288322 sample=BLUTHNER\BLUTHNER SAMPLES\RAW\Bluthner p A#5.7.wav
	<region> lovel=000 hivel=127 amp_velcurve_127=1 volume=-96 offset=35968 end=279746 trigger=release sample=BLUTHNER\BLUTHNER SAMPLES\RAW\Bluthner RT A#5.7.wav
<group>lokey=95 hikey=99 pitch_keycenter=99 seq_length=3 seq_position=1 pitch_keytrack=1
	<region> lovel=000 hivel=127 amp_velcurve_127=1 offset=38683 loop_mode=loop_sustain loop_start=142523 loop_end=288107 sample=BLUTHNER\BLUTHNER SAMPLES\RAW\Bluthner f D#6.21.wav
	<region> lovel=000 hivel=127 amp_velcurve_127=1 offset=34214 loop_mode=loop_sustain loop_start=142523 loop_end=288107 sample=BLUTHNER\BLUTHNER SAMPLES\RAW\Bluthner p D#6.12.wav
	<region> lovel=000 hivel=127 amp_velcurve_127=1 volume=-96 offset=35968 end=279746 trigger=release sample=BLUTHNER\BLUTHNER SAMPLES\RAW\Bluthner RT D#6.12.wav
<group>lokey=95 hikey=99 pitch_keycenter=99 seq_length=3 seq_position=2 pitch_keytrack=1
	<region> lovel=000 hivel=127 amp_velcurve_127=1 offset=37548 loop_mode=loop_sustain loop_start=142523 loop_end=288107 sample=BLUTHNER\BLUTHNER SAMPLES\RAW\Bluthner f D#6.19.wav
	<region> lovel=000 hivel=127 amp_velcurve_127=1 offset=36505 loop_mode=loop_sustain loop_start=142523 loop_end=288107 sample=BLUTHNER\BLUTHNER SAMPLES\RAW\Bluthner p D#6.11.wav
	<region> lovel=000 hivel=127 amp_velcurve_127=1 volume=-96 offset=35968 end=279746 trigger=release sample=BLUTHNER\BLUTHNER SAMPLES\RAW\Bluthner RT D#6.11.wav
<group>lokey=95 hikey=99 pitch_keycenter=99 seq_length=3 seq_position=3 pitch_keytrack=1
	<region> lovel=000 hivel=127 amp_velcurve_127=1 offset=35474 loop_mode=loop_sustain loop_start=142523 loop_end=288107 sample=BLUTHNER\BLUTHNER SAMPLES\RAW\Bluthner f D#6.20.wav
	<region> lovel=000 hivel=127 amp_velcurve_127=1 offset=37997 loop_mode=loop_sustain loop_start=142313 loop_end=289803 sample=BLUTHNER\BLUTHNER SAMPLES\RAW\Bluthner p D#6.10.wav
	<region> lovel=000 hivel=127 amp_velcurve_127=1 volume=-96 offset=35968 end=279746 trigger=release sample=BLUTHNER\BLUTHNER SAMPLES\RAW\Bluthner RT D#6.10.wav
<group>lokey=100 hikey=127 pitch_keycenter=101 seq_length=3 seq_position=1 pitch_keytrack=1
	<region> lovel=000 hivel=127 amp_velcurve_127=1 offset=34510 loop_mode=loop_sustain loop_start=142523 loop_end=288107 sample=BLUTHNER\BLUTHNER SAMPLES\RAW\Bluthner f F6.6.wav
	<region> lovel=000 hivel=127 amp_velcurve_127=1 offset=37279 loop_mode=loop_sustain loop_start=142523 loop_end=288107 sample=BLUTHNER\BLUTHNER SAMPLES\RAW\Bluthner p F6.3.wav
	<region> lovel=000 hivel=127 amp_velcurve_127=1 volume=-96 offset=35968 end=279746 trigger=release sample=BLUTHNER\BLUTHNER SAMPLES\RAW\Bluthner RT F6.3.wav
<group>lokey=100 hikey=127 pitch_keycenter=101 seq_length=3 seq_position=2 pitch_keytrack=1
	<region> lovel=000 hivel=127 amp_velcurve_127=1 offset=37099 loop_mode=loop_sustain loop_start=142523 loop_end=288107 sample=BLUTHNER\BLUTHNER SAMPLES\RAW\Bluthner f F6.4.wav
	<region> lovel=000 hivel=127 amp_velcurve_127=1 offset=36860 loop_mode=loop_sustain loop_start=142523 loop_end=288107 sample=BLUTHNER\BLUTHNER SAMPLES\RAW\Bluthner p F6.2.wav
	<region> lovel=000 hivel=127 amp_velcurve_127=1 volume=-96 offset=35968 end=279746 trigger=release sample=BLUTHNER\BLUTHNER SAMPLES\RAW\Bluthner RT F6.2.wav
<group>lokey=100 hikey=127 pitch_keycenter=101 seq_length=3 seq_position=3 pitch_keytrack=1
	<region> lovel=000 hivel=127 amp_velcurve_127=1 offset=35611 loop_mode=loop_sustain loop_start=142523 loop_end=288107 sample=BLUTHNER\BLUTHNER SAMPLES\RAW\Bluthner f F6.5.wav
	<region> lovel=000 hivel=127 amp_velcurve_127=1 offset=35397 loop_mode=loop_sustain loop_start=107766 loop_end=252564 sample=BLUTHNER\BLUTHNER SAMPLES\RAW\Bluthner p F6.1.wav
	<region> lovel=000 hivel=127 amp_velcurve_127=1 volume=-96 offset=35968 end=279746 trigger=release sample=BLUTHNER\BLUTHNER SAMPLES\RAW\Bluthner RT F6.1.wav
